<mxfile host="app.diagrams.net" modified="2023-02-20T14:34:23.210Z" agent="5.0 (Macintosh; Intel Mac OS X 10_15_7) AppleWebKit/537.36 (KHTML, like Gecko) Chrome/110.0.0.0 Safari/537.36" etag="d8vNXzE9rlimSmWDYO3D" version="20.8.20" type="github">
  <diagram name="Страница 1" id="M6MnVRrjUb-IilKqB1AO">
    <mxGraphModel dx="2304" dy="1134" grid="1" gridSize="10" guides="1" tooltips="1" connect="1" arrows="1" fold="1" page="1" pageScale="1" pageWidth="827" pageHeight="1169" background="#bdbdbd" math="0" shadow="0">
      <root>
        <mxCell id="0" />
        <mxCell id="1" parent="0" />
        <mxCell id="pa2Qshf86sT0noNAij-P-2" value="" style="rounded=0;whiteSpace=wrap;html=1;fillColor=none;" vertex="1" parent="1">
          <mxGeometry x="40" y="160" width="760" height="160" as="geometry" />
        </mxCell>
        <mxCell id="pa2Qshf86sT0noNAij-P-3" value="&lt;font style=&quot;font-size: 20px;&quot;&gt;nginx&lt;/font&gt;" style="text;html=1;strokeColor=none;fillColor=none;align=center;verticalAlign=middle;whiteSpace=wrap;rounded=0;" vertex="1" parent="1">
          <mxGeometry x="390" y="235" width="60" height="30" as="geometry" />
        </mxCell>
        <mxCell id="pa2Qshf86sT0noNAij-P-4" value="&lt;font style=&quot;font-size: 18px;&quot;&gt;&lt;i&gt;container&lt;/i&gt;&lt;/font&gt;" style="text;html=1;strokeColor=none;fillColor=none;align=center;verticalAlign=middle;whiteSpace=wrap;rounded=0;" vertex="1" parent="1">
          <mxGeometry x="720" y="170" width="60" height="30" as="geometry" />
        </mxCell>
        <mxCell id="pa2Qshf86sT0noNAij-P-5" value="&lt;font style=&quot;font-size: 20px;&quot;&gt;80&lt;/font&gt;" style="text;html=1;strokeColor=none;fillColor=none;align=center;verticalAlign=middle;whiteSpace=wrap;rounded=0;" vertex="1" parent="1">
          <mxGeometry x="390" y="210" width="60" height="30" as="geometry" />
        </mxCell>
        <mxCell id="pa2Qshf86sT0noNAij-P-6" value="" style="rounded=0;whiteSpace=wrap;html=1;fillColor=none;" vertex="1" parent="1">
          <mxGeometry x="40" y="600" width="280" height="320" as="geometry" />
        </mxCell>
        <mxCell id="pa2Qshf86sT0noNAij-P-7" value="" style="rounded=0;whiteSpace=wrap;html=1;fillColor=none;" vertex="1" parent="1">
          <mxGeometry x="520" y="600" width="280" height="320" as="geometry" />
        </mxCell>
        <mxCell id="pa2Qshf86sT0noNAij-P-9" value="" style="shape=cylinder3;whiteSpace=wrap;html=1;boundedLbl=1;backgroundOutline=1;size=15;fontSize=18;fillColor=none;" vertex="1" parent="1">
          <mxGeometry x="360" y="640" width="120" height="120" as="geometry" />
        </mxCell>
        <mxCell id="pa2Qshf86sT0noNAij-P-10" value="&lt;font style=&quot;font-size: 18px;&quot;&gt;&lt;i&gt;container&lt;/i&gt;&lt;/font&gt;" style="text;html=1;strokeColor=none;fillColor=none;align=center;verticalAlign=middle;whiteSpace=wrap;rounded=0;" vertex="1" parent="1">
          <mxGeometry x="720" y="880" width="60" height="30" as="geometry" />
        </mxCell>
        <mxCell id="pa2Qshf86sT0noNAij-P-11" value="&lt;font style=&quot;font-size: 18px;&quot;&gt;&lt;i&gt;container&lt;/i&gt;&lt;/font&gt;" style="text;html=1;strokeColor=none;fillColor=none;align=center;verticalAlign=middle;whiteSpace=wrap;rounded=0;" vertex="1" parent="1">
          <mxGeometry x="240" y="880" width="60" height="30" as="geometry" />
        </mxCell>
        <mxCell id="pa2Qshf86sT0noNAij-P-12" value="" style="rounded=0;whiteSpace=wrap;html=1;fillColor=none;" vertex="1" parent="1">
          <mxGeometry x="330" y="600" width="180" height="190" as="geometry" />
        </mxCell>
        <mxCell id="pa2Qshf86sT0noNAij-P-13" value="&lt;font style=&quot;font-size: 18px;&quot;&gt;&lt;i&gt;container&lt;/i&gt;&lt;/font&gt;" style="text;html=1;strokeColor=none;fillColor=none;align=center;verticalAlign=middle;whiteSpace=wrap;rounded=0;" vertex="1" parent="1">
          <mxGeometry x="390" y="710" width="60" height="30" as="geometry" />
        </mxCell>
        <mxCell id="pa2Qshf86sT0noNAij-P-14" value="&lt;font style=&quot;font-size: 18px;&quot;&gt;&lt;i&gt;script_panel&lt;/i&gt;&lt;/font&gt;" style="text;html=1;strokeColor=none;fillColor=none;align=center;verticalAlign=middle;whiteSpace=wrap;rounded=0;" vertex="1" parent="1">
          <mxGeometry x="550" y="880" width="60" height="30" as="geometry" />
        </mxCell>
        <mxCell id="pa2Qshf86sT0noNAij-P-15" value="&lt;font style=&quot;font-size: 18px;&quot;&gt;&lt;i&gt;script_api&lt;/i&gt;&lt;/font&gt;" style="text;html=1;strokeColor=none;fillColor=none;align=center;verticalAlign=middle;whiteSpace=wrap;rounded=0;" vertex="1" parent="1">
          <mxGeometry x="60" y="880" width="60" height="30" as="geometry" />
        </mxCell>
        <mxCell id="pa2Qshf86sT0noNAij-P-17" value="" style="rounded=0;whiteSpace=wrap;html=1;fontSize=18;fillColor=none;" vertex="1" parent="1">
          <mxGeometry x="590" y="620" width="120" height="50" as="geometry" />
        </mxCell>
        <mxCell id="pa2Qshf86sT0noNAij-P-18" value="&lt;font style=&quot;font-size: 20px;&quot;&gt;nginx&lt;/font&gt;" style="text;html=1;strokeColor=none;fillColor=none;align=center;verticalAlign=middle;whiteSpace=wrap;rounded=0;" vertex="1" parent="1">
          <mxGeometry x="620" y="640" width="60" height="30" as="geometry" />
        </mxCell>
        <mxCell id="pa2Qshf86sT0noNAij-P-19" value="&lt;font style=&quot;font-size: 20px;&quot;&gt;3000&lt;/font&gt;" style="text;html=1;strokeColor=none;fillColor=none;align=center;verticalAlign=middle;whiteSpace=wrap;rounded=0;" vertex="1" parent="1">
          <mxGeometry x="620" y="620" width="60" height="30" as="geometry" />
        </mxCell>
        <mxCell id="pa2Qshf86sT0noNAij-P-20" value="&lt;font style=&quot;font-size: 15px;&quot;&gt;/usr/share/nginx/htm&lt;/font&gt;" style="text;html=1;strokeColor=none;fillColor=none;align=center;verticalAlign=middle;whiteSpace=wrap;rounded=0;" vertex="1" parent="1">
          <mxGeometry x="630" y="790" width="60" height="30" as="geometry" />
        </mxCell>
        <mxCell id="pa2Qshf86sT0noNAij-P-25" value="" style="rounded=1;whiteSpace=wrap;html=1;fontSize=15;fillColor=none;" vertex="1" parent="1">
          <mxGeometry x="550" y="760" width="220" height="60" as="geometry" />
        </mxCell>
        <mxCell id="pa2Qshf86sT0noNAij-P-27" style="edgeStyle=orthogonalEdgeStyle;rounded=0;orthogonalLoop=1;jettySize=auto;html=1;exitX=0.5;exitY=0;exitDx=0;exitDy=0;entryX=0.5;entryY=1;entryDx=0;entryDy=0;fontSize=15;" edge="1" parent="1" source="pa2Qshf86sT0noNAij-P-26" target="pa2Qshf86sT0noNAij-P-18">
          <mxGeometry relative="1" as="geometry" />
        </mxCell>
        <mxCell id="pa2Qshf86sT0noNAij-P-26" value="&lt;font style=&quot;font-size: 20px;&quot;&gt;static&lt;/font&gt;" style="text;html=1;strokeColor=none;fillColor=none;align=center;verticalAlign=middle;whiteSpace=wrap;rounded=0;" vertex="1" parent="1">
          <mxGeometry x="630" y="760" width="60" height="30" as="geometry" />
        </mxCell>
        <mxCell id="pa2Qshf86sT0noNAij-P-29" value="location /" style="text;html=1;strokeColor=none;fillColor=none;align=center;verticalAlign=middle;whiteSpace=wrap;rounded=0;fontSize=15;" vertex="1" parent="1">
          <mxGeometry x="505" y="260" width="150" height="30" as="geometry" />
        </mxCell>
        <mxCell id="pa2Qshf86sT0noNAij-P-37" style="edgeStyle=orthogonalEdgeStyle;rounded=0;orthogonalLoop=1;jettySize=auto;html=1;exitX=1;exitY=0.5;exitDx=0;exitDy=0;entryX=0;entryY=0.5;entryDx=0;entryDy=0;fontSize=15;" edge="1" parent="1" source="pa2Qshf86sT0noNAij-P-30" target="pa2Qshf86sT0noNAij-P-36">
          <mxGeometry relative="1" as="geometry" />
        </mxCell>
        <mxCell id="pa2Qshf86sT0noNAij-P-41" style="edgeStyle=orthogonalEdgeStyle;rounded=0;orthogonalLoop=1;jettySize=auto;html=1;exitX=0;exitY=0.5;exitDx=0;exitDy=0;entryX=1;entryY=0.5;entryDx=0;entryDy=0;fontSize=15;" edge="1" parent="1" source="pa2Qshf86sT0noNAij-P-30" target="pa2Qshf86sT0noNAij-P-40">
          <mxGeometry relative="1" as="geometry" />
        </mxCell>
        <mxCell id="pa2Qshf86sT0noNAij-P-30" value="" style="rounded=0;whiteSpace=wrap;html=1;fontSize=15;fillColor=none;" vertex="1" parent="1">
          <mxGeometry x="360" y="200" width="120" height="80" as="geometry" />
        </mxCell>
        <mxCell id="pa2Qshf86sT0noNAij-P-38" style="edgeStyle=orthogonalEdgeStyle;rounded=0;orthogonalLoop=1;jettySize=auto;html=1;exitX=0.5;exitY=1;exitDx=0;exitDy=0;entryX=0.5;entryY=0;entryDx=0;entryDy=0;fontSize=15;" edge="1" parent="1" source="pa2Qshf86sT0noNAij-P-36" target="pa2Qshf86sT0noNAij-P-19">
          <mxGeometry relative="1" as="geometry" />
        </mxCell>
        <mxCell id="pa2Qshf86sT0noNAij-P-36" value="" style="rounded=1;whiteSpace=wrap;html=1;fontSize=15;fillColor=none;" vertex="1" parent="1">
          <mxGeometry x="520" y="265" width="120" height="20" as="geometry" />
        </mxCell>
        <mxCell id="pa2Qshf86sT0noNAij-P-39" value="location /api" style="text;html=1;strokeColor=none;fillColor=none;align=center;verticalAlign=middle;whiteSpace=wrap;rounded=0;fontSize=15;" vertex="1" parent="1">
          <mxGeometry x="185" y="260" width="150" height="30" as="geometry" />
        </mxCell>
        <mxCell id="pa2Qshf86sT0noNAij-P-45" style="edgeStyle=orthogonalEdgeStyle;rounded=0;orthogonalLoop=1;jettySize=auto;html=1;exitX=0.5;exitY=1;exitDx=0;exitDy=0;entryX=0.5;entryY=0;entryDx=0;entryDy=0;fontSize=15;" edge="1" parent="1" source="pa2Qshf86sT0noNAij-P-40" target="pa2Qshf86sT0noNAij-P-44">
          <mxGeometry relative="1" as="geometry" />
        </mxCell>
        <mxCell id="pa2Qshf86sT0noNAij-P-40" value="" style="rounded=1;whiteSpace=wrap;html=1;fontSize=15;fillColor=none;" vertex="1" parent="1">
          <mxGeometry x="200" y="265" width="120" height="20" as="geometry" />
        </mxCell>
        <mxCell id="pa2Qshf86sT0noNAij-P-42" value="" style="rounded=0;whiteSpace=wrap;html=1;fontSize=18;fillColor=none;" vertex="1" parent="1">
          <mxGeometry x="110" y="630" width="120" height="50" as="geometry" />
        </mxCell>
        <mxCell id="pa2Qshf86sT0noNAij-P-43" value="&lt;font style=&quot;font-size: 20px;&quot;&gt;node&lt;/font&gt;" style="text;html=1;strokeColor=none;fillColor=none;align=center;verticalAlign=middle;whiteSpace=wrap;rounded=0;" vertex="1" parent="1">
          <mxGeometry x="140" y="650" width="60" height="30" as="geometry" />
        </mxCell>
        <mxCell id="pa2Qshf86sT0noNAij-P-44" value="&lt;font style=&quot;font-size: 20px;&quot;&gt;5000&lt;/font&gt;" style="text;html=1;strokeColor=none;fillColor=none;align=center;verticalAlign=middle;whiteSpace=wrap;rounded=0;" vertex="1" parent="1">
          <mxGeometry x="140" y="630" width="60" height="30" as="geometry" />
        </mxCell>
        <mxCell id="pa2Qshf86sT0noNAij-P-54" style="edgeStyle=orthogonalEdgeStyle;rounded=0;orthogonalLoop=1;jettySize=auto;html=1;exitX=1;exitY=0.5;exitDx=0;exitDy=0;fontSize=15;entryX=0.5;entryY=0;entryDx=0;entryDy=0;" edge="1" parent="1" source="pa2Qshf86sT0noNAij-P-48" target="pa2Qshf86sT0noNAij-P-53">
          <mxGeometry relative="1" as="geometry">
            <mxPoint x="280" y="490" as="targetPoint" />
            <Array as="points">
              <mxPoint x="280" y="770" />
              <mxPoint x="280" y="520" />
              <mxPoint x="420" y="520" />
            </Array>
          </mxGeometry>
        </mxCell>
        <mxCell id="pa2Qshf86sT0noNAij-P-48" value="" style="ellipse;whiteSpace=wrap;html=1;aspect=fixed;fontSize=15;fillColor=none;" vertex="1" parent="1">
          <mxGeometry x="130" y="730" width="80" height="80" as="geometry" />
        </mxCell>
        <mxCell id="pa2Qshf86sT0noNAij-P-49" value="" style="endArrow=classic;startArrow=classic;html=1;rounded=0;fontSize=15;exitX=0.5;exitY=0;exitDx=0;exitDy=0;entryX=0.5;entryY=1;entryDx=0;entryDy=0;" edge="1" parent="1" source="pa2Qshf86sT0noNAij-P-48" target="pa2Qshf86sT0noNAij-P-43">
          <mxGeometry width="50" height="50" relative="1" as="geometry">
            <mxPoint x="420" y="590" as="sourcePoint" />
            <mxPoint x="470" y="540" as="targetPoint" />
          </mxGeometry>
        </mxCell>
        <mxCell id="pa2Qshf86sT0noNAij-P-50" value="&lt;font style=&quot;font-size: 20px;&quot;&gt;core&lt;/font&gt;" style="text;html=1;strokeColor=none;fillColor=none;align=center;verticalAlign=middle;whiteSpace=wrap;rounded=0;" vertex="1" parent="1">
          <mxGeometry x="140" y="755" width="60" height="30" as="geometry" />
        </mxCell>
        <mxCell id="pa2Qshf86sT0noNAij-P-51" value="&lt;span style=&quot;font-size: 20px;&quot;&gt;DB&lt;/span&gt;" style="text;html=1;strokeColor=none;fillColor=none;align=center;verticalAlign=middle;whiteSpace=wrap;rounded=0;" vertex="1" parent="1">
          <mxGeometry x="390" y="680" width="60" height="30" as="geometry" />
        </mxCell>
        <mxCell id="pa2Qshf86sT0noNAij-P-53" value="&lt;font style=&quot;font-size: 20px;&quot;&gt;27017&lt;/font&gt;" style="text;html=1;strokeColor=none;fillColor=none;align=center;verticalAlign=middle;whiteSpace=wrap;rounded=0;" vertex="1" parent="1">
          <mxGeometry x="390" y="600" width="60" height="30" as="geometry" />
        </mxCell>
        <mxCell id="pa2Qshf86sT0noNAij-P-55" value="" style="endArrow=classic;html=1;rounded=0;fontSize=15;entryX=0.5;entryY=0;entryDx=0;entryDy=0;exitX=0.5;exitY=1;exitDx=0;exitDy=0;" edge="1" parent="1" source="pa2Qshf86sT0noNAij-P-56" target="pa2Qshf86sT0noNAij-P-30">
          <mxGeometry width="50" height="50" relative="1" as="geometry">
            <mxPoint x="420" y="120" as="sourcePoint" />
            <mxPoint x="450" y="480" as="targetPoint" />
          </mxGeometry>
        </mxCell>
        <mxCell id="pa2Qshf86sT0noNAij-P-56" value="Client" style="swimlane;fontSize=15;fillColor=none;" vertex="1" parent="1">
          <mxGeometry x="320" y="10" width="200" height="100" as="geometry" />
        </mxCell>
      </root>
    </mxGraphModel>
  </diagram>
</mxfile>
